<?xml version="1.0" encoding="UTF-8" standalone="no"?>
<svg
   xmlns:svg="http://www.w3.org/2000/svg"
   xmlns="http://www.w3.org/2000/svg"
   version="1.1"
   width="502.203"
   height="299.04733"
   id="svg3794">
  <defs
     id="defs3796" />
  <g
     transform="translate(-194.61278,-319.98137)"
     id="layer1">
    <path
       d="m 648.21122,567.73827 0,-28.87396 11.62343,0 0,2.52055 -8.85404,0 0,10.17051 8.28411,0 0,2.39211 -8.28411,0 0,11.2301 9.26343,0 0,2.56069 -12.03282,0 z m -11.08966,-28.88038 2.8577,0 0,28.88198 -2.8577,0 0,-28.88198 z m -9.4713,7.75353 c 0,3.46777 -1.92653,5.51471 -4.97688,5.51471 l -3.78886,0 0,-10.86084 3.66845,0 c 2.56069,0 5.09729,1.18803 5.09729,5.34613 m 3.2109,21.12768 -5.61907,-13.87106 c 2.36804,-0.36154 5.17757,-2.48041 5.17757,-7.369 0,-5.72341 -3.63634,-7.64192 -7.41717,-7.64192 l -6.94355,0 0,28.88198 2.82558,0 0,-13.3814 3.70859,0 5.20967,13.3814 3.05838,0 z m -25.31713,-26.43451 0,26.43368 -2.82558,0 0,-26.43368 -5.54682,0 0,-2.44831 13.95133,0 0,2.44831 -5.57893,0 z m -18.97072,27.13127 c -2.89783,0 -5.54682,-1.34857 -7.05594,-3.42762 l 1.74994,-2.00681 c 1.2683,1.80613 3.30722,2.82558 5.26586,2.82558 2.56872,0 4.60763,-1.95864 4.60763,-5.34613 0,-3.25906 -2.36,-4.88859 -4.93675,-6.189 -3.09851,-1.55728 -5.8679,-3.55606 -5.8679,-8.17172 0,-5.33811 3.58817,-7.95499 7.32886,-7.95499 2.58477,0 4.78423,0.85891 6.17294,2.77742 l -1.75796,1.99076 c -1.09973,-1.54123 -2.56872,-2.19947 -4.32668,-2.19947 -2.27973,0 -4.64777,1.59742 -4.64777,5.34614 0,3.21892 2.16736,4.69593 4.55947,5.91607 3.11457,1.55729 6.25322,3.71661 6.25322,8.35635 0,5.10532 -3.26709,8.08342 -7.34492,8.08342 m -21.36933,0 c -6.20505,0 -8.20383,-4.81633 -8.20383,-10.80465 l 0,-18.76767 2.85769,0 0,18.40644 c 0,4.27049 0.93919,8.55703 5.38627,8.55703 4.39893,0 5.38628,-4.2464 5.38628,-8.55703 l 0,-18.40644 2.84967,0 0,18.76767 c 0,5.98832 -2.07906,10.80465 -8.27608,10.80465 m -17.70885,-15.09042 c 0,8.02723 -3.34735,11.91241 -7.70614,11.91241 l -3.34736,0 0,-23.9051 3.34736,0 c 4.35879,0 7.70614,3.83702 7.70614,11.99269 m 2.81756,0 c 0,-9.51227 -4.07783,-14.48916 -10.44343,-14.48916 l -6.24519,0 0,28.88199 6.20506,0 c 6.35756,0 10.48356,-4.93675 10.48356,-14.39283 m -28.34897,14.39283 -10.07418,-24.01748 -0.12844,0 0,24.01748 -2.65701,0 0,-28.87396 3.55606,0 9.99391,24.02551 0.12073,0 0,-24.02551 2.61688,0 0,28.87396 -3.42763,0 z m -23.93805,-28.88038 2.8577,0 0,28.88198 -2.8577,0 0,-28.88198 z m 195.36281,-21.0546 -10.07417,-24.02551 -0.12844,0 0,24.02551 -2.64899,0 0,-28.89001 3.55607,0 9.9939,24.02551 0.12009,0 0,-24.02551 2.60885,0 0,28.89001 -3.42763,0 z m -30.7138,0 0,-28.89001 11.62344,0 0,2.53661 -8.85404,0 0,10.15445 8.2841,0 0,2.40014 -8.2841,0 0,11.22207 9.26343,0 0,2.57674 -12.03283,0 z m -10.27646,0 0,-13.70248 -11.0535,0 0,13.70248 -2.86572,0 0,-28.89001 2.86572,0 0,12.64289 11.0535,0 0,-12.64289 2.84967,0 0,28.89001 -2.84967,0 z m -25.61811,0.68951 c -6.2773,0 -9.92166,-6.52614 -9.92166,-15.13133 0,-8.6935 3.71661,-15.13937 9.92166,-15.13937 2.69715,0 5.2177,1.09973 6.77499,3.54804 l -1.84627,1.8864 c -1.21211,-1.92654 -2.97007,-2.81756 -4.81634,-2.81756 -4.76015,0 -7.05594,5.62709 -7.05594,12.52249 0,6.80709 2.36804,12.53051 7.10411,12.53051 2.03089,0 3.83701,-1.27633 4.89661,-3.18682 l 1.79007,1.83824 c -1.50109,2.52858 -3.90926,3.9494 -6.84723,3.9494 m -21.98903,0 c -2.90586,0 -5.55485,-1.34858 -7.05594,-3.42763 l 1.74994,-1.99878 c 1.2683,1.7981 3.30722,2.82559 5.26586,2.82559 2.56872,0 4.60764,-1.95865 4.60764,-5.34614 0,-3.27511 -2.36804,-4.91267 -4.93675,-6.20505 -3.09851,-1.55729 -5.87594,-3.55607 -5.87594,-8.1637 0,-5.33811 3.5962,-7.95499 7.33689,-7.95499 2.57675,0 4.78423,0.85892 6.17295,2.77743 l -1.75797,1.99878 c -1.09973,-1.54926 -2.56871,-2.20749 -4.32668,-2.20749 -2.27973,0 -4.64776,1.59742 -4.64776,5.34614 0,3.22694 2.15932,4.6879 4.55946,5.91607 3.10654,1.54122 6.25322,3.70858 6.25322,8.36437 0,5.0973 -3.26709,8.0754 -7.34492,8.0754 m -15.45563,-29.57233 2.85769,0 0,28.88199 -2.85769,0 0,-28.88199 z m -10.24115,28.88282 0,-25.0851 -0.12843,0 -7.1041,25.0851 -2.64899,0 -7.04791,-25.0851 -0.12073,0 0,25.0851 -2.64899,0 0,-28.89001 4.23838,0 6.88737,24.39476 0.16889,0 6.81512,-24.39476 4.40695,0 0,28.89001 -2.81756,0 z m -37.57226,0 0,-28.89001 11.62343,0 0,2.53661 -8.85404,0 0,10.15445 8.28411,0 0,2.40014 -8.28411,0 0,11.22207 9.26343,0 0,2.57674 -12.03282,0 z m -10.27724,0 0,-13.70248 -11.0535,0 0,13.70248 -2.86572,0 0,-28.89001 2.86572,0 0,12.64289 11.0535,0 0,-12.64289 2.84967,0 0,28.89001 -2.84967,0 z m -25.61894,0.68951 c -6.28533,0 -9.91364,-6.52614 -9.91364,-15.13133 0,-8.6935 3.70859,-15.13937 9.91364,-15.13937 2.68912,0 5.22573,1.09973 6.77498,3.54804 l -1.83823,1.8864 c -1.22014,-1.92654 -2.97811,-2.81756 -4.81634,-2.81756 -4.76818,0 -7.06397,5.62709 -7.06397,12.52249 0,6.80709 2.36803,12.53051 7.09607,12.53051 2.03892,0 3.84505,-1.27633 4.90464,-3.18682 l 1.7981,1.83824 c -1.50912,2.52858 -3.91729,3.9494 -6.85525,3.9494 m 158.42065,-73.01732 c 0,3.46777 -1.92654,5.50669 -4.97689,5.50669 l -3.79688,0 0,-10.85282 3.67647,0 c 2.56872,0 5.0973,1.18803 5.0973,5.34613 m 3.21892,21.13571 -5.62709,-13.87909 c 2.36803,-0.36154 5.18559,-2.48041 5.18559,-7.37702 0,-5.71539 -3.63634,-7.62588 -7.42519,-7.62588 l -6.94356,0 0,28.88199 2.81756,0 0,-13.3814 3.71661,0 5.20967,13.3814 3.06641,0 z m -32.67001,-0.006 0,-28.87396 11.62344,0 0,2.52858 -8.85404,0 0,10.15445 8.2841,0 0,2.40015 -8.2841,0 0,11.22207 9.26343,0 0,2.56871 -12.03283,0 z m -9.01458,-14.40008 c 0,8.03526 -3.34735,11.91241 -7.71417,11.91241 l -3.33933,0 0,-23.9051 3.33933,0 c 4.36682,0 7.71417,3.83702 7.71417,11.99269 m 2.80953,0 c 0,-9.49622 -4.07783,-14.4731 -10.4354,-14.4731 l -6.25321,0 0,28.87395 6.21307,0 c 6.35757,0 10.47554,-4.93675 10.47554,-14.40085 m -38.38385,15.0944 c -2.90586,0 -5.55484,-1.34857 -7.05594,-3.42762 l 1.74994,-1.99878 c 1.2683,1.7981 3.30722,2.81755 5.26587,2.81755 2.56068,0 4.60763,-1.95864 4.60763,-5.33811 0,-3.26708 -2.36804,-4.90464 -4.93675,-6.20505 -3.09851,-1.54925 -5.87593,-3.54803 -5.87593,-8.16369 0,-5.33811 3.5962,-7.95499 7.33689,-7.95499 2.57674,0 4.78423,0.85891 6.17294,2.77742 l -1.76599,1.99878 c -1.09171,-1.54925 -2.56069,-2.20749 -4.32668,-2.20749 -2.27171,0 -4.63974,1.59742 -4.63974,5.35417 0,3.21892 2.15932,4.6879 4.55947,5.90804 3.11456,1.54926 6.25321,3.70858 6.25321,8.36438 0,5.10532 -3.26708,8.07539 -7.34492,8.07539 m -14.19613,-15.0944 c 0,8.03526 -3.34735,11.91241 -7.70614,11.91241 l -3.34736,0 0,-23.9051 3.34736,0 c 4.35879,0 7.70614,3.83702 7.70614,11.99269 m 2.80954,0 c 0,-9.49622 -4.06981,-14.4731 -10.43541,-14.4731 l -6.24518,0 0,28.87395 6.20505,0 c 6.36559,0 10.47554,-4.93675 10.47554,-14.40085 m -27.52622,14.40008 -10.07418,-24.01748 -0.12843,0 0,24.01748 -2.65702,0 0,-28.87396 3.55607,0 10.00193,24.01749 0.11238,0 0,-24.01749 2.61688,0 0,28.87396 -3.42763,0 z m -22.02833,-14.47875 c 0,6.97566 -2.20749,12.56262 -6.53417,12.56262 -4.43906,0 -6.60641,-5.58696 -6.60641,-12.56262 0,-6.97567 2.16735,-12.48235 6.60641,-12.48235 4.28654,0 6.53417,5.50668 6.53417,12.48235 m 2.9781,0 c 0,-8.97445 -3.55606,-15.0912 -9.51227,-15.0912 -6.14886,0 -9.57649,6.11675 -9.57649,15.0912 0,9.01458 3.58015,15.17147 9.57649,15.17147 5.95621,0 9.51227,-6.15689 9.51227,-15.17147 m -32.0214,-11.82893 0,10.32302 8.1075,0 0,2.48844 -8.1075,0 0,13.50181 -2.82559,0 0,-28.88199 11.55922,0 0,2.56872 -8.73363,0 z m 65.88187,-75.4303 5.15349,0 0,52.13687 -5.15349,0 0,-52.13687 z m -22.24185,53.39073 c -11.33446,0 -17.8927,-11.78398 -17.8927,-27.3247 0,-15.67719 6.70273,-27.31667 17.8927,-27.31667 4.8645,0 9.42397,1.99075 12.22547,6.40573 l -3.31524,3.38749 c -2.20749,-3.45974 -5.37825,-5.07321 -8.68547,-5.07321 -8.62125,0 -12.73922,10.15445 -12.73922,22.59666 0,12.30575 4.27049,22.61271 12.81146,22.61271 3.67648,0 6.91948,-2.28776 8.83799,-5.73947 l 3.23497,3.30722 c -2.72123,4.5675 -7.06396,7.14424 -12.36996,7.14424 m -40.79517,-48.74778 0,18.63121 14.65773,0 0,4.48722 -14.65773,0 0,24.37871 -5.08124,0 0,-52.13688 20.8387,0 0,4.63974 -15.75746,0 z M 328.13411,320.03475 c -17.42712,0.62613 -28.0311,9.48016 -42.22325,22.92578 -13.10847,12.41813 -34.57329,19.85135 -51.80776,25.82361 l -7.03185,2.45633 c -19.35366,6.87934 -37.43099,34.24418 -30.84063,57.88438 5.41838,19.48209 4.88858,31.73967 4.45511,41.59712 l -0.21641,6.3094 c -0.0726,6.5422 -1.42082,12.35391 -2.84164,18.5108 -2.08708,9.01458 -4.24641,18.3342 -2.17538,30.1262 3.14667,17.81243 20.95108,37.43099 38.10527,41.96638 20.25271,5.34613 40.37698,17.39501 61.51269,36.81289 16.82508,15.46847 30.656,15.49256 46.96734,13.91119 12.81146,-1.22817 24.12986,-11.63146 33.22471,-19.98781 2.60885,-2.40014 5.07321,-4.67185 7.20043,-6.34954 6.5422,-5.14546 36.34731,-19.93162 44.3023,-21.97054 l 1.78204,-0.44952 c 8.0754,-1.98273 18.14155,-4.46314 31.04934,-22.27557 9.82533,-13.59813 11.8803,-28.593 6.4539,-47.25632 -3.76478,-12.81949 -6.70274,-39.81508 0.70639,-61.67323 7.76234,-22.88564 -5.19362,-52.65865 -27.74211,-63.72017 -5.79567,-2.84967 -11.71174,-4.82437 -17.43515,-6.73485 -7.73826,-2.60083 -15.06712,-5.04913 -21.81802,-9.44003 l -0.006,0 0.006,0 -4.15811,-2.56069 c -5.37022,-3.21089 -10.92506,-6.52614 -24.2583,-19.20114 -13.1486,-12.49037 -25.67911,-17.33079 -43.21059,-16.70467 m -31.81192,283.06431 c -21.3685,-19.63461 -41.74964,-31.81995 -62.29133,-37.24636 -16.55215,-4.37484 -33.72241,-23.30306 -36.7567,-40.49739 -2.01483,-11.43078 0.0963,-20.56577 2.14327,-29.3877 1.37266,-5.99634 2.81756,-12.17731 2.89783,-18.91216 l 0.20036,-6.25321 c 0.44953,-9.98588 0.97933,-22.41204 -4.5113,-42.17508 -6.33349,-22.71707 11.06152,-49.03034 29.6847,-55.65281 l 7.01581,-2.45633 c 17.41106,-6.02845 39.06051,-13.52589 52.46599,-26.22497 16.21501,-15.3561 25.49449,-21.85815 41.02719,-22.42006 16.99365,-0.61007 29.11477,4.08586 41.87004,16.19895 13.48575,12.8195 19.1289,16.19093 24.58742,19.44999 l 4.10191,2.52858 c 6.95961,4.5113 14.3848,6.99974 22.25149,9.63268 5.6592,1.89442 11.51105,3.85307 17.20236,6.64655 21.76986,10.68424 34.30037,39.40568 26.80293,61.48057 -7.53757,22.25149 -4.55947,49.72871 -0.72245,62.77296 5.24981,18.06128 3.28314,32.57451 -6.189,45.66693 -12.50642,17.2746 -22.20332,19.65869 -29.98974,21.56115 l -1.81415,0.44182 c -8.08343,2.08708 -38.33004,17.098 -44.96053,22.30767 -2.20749,1.74191 -4.68791,4.02968 -7.32084,6.4539 -8.9022,8.17172 -19.96373,18.3342 -32.14907,19.5142 -16.39161,1.58137 -29.25926,1.55729 -45.54652,-13.42956 m 1.21533,-252.51189 c -7.60982,14.16004 -15.86181,21.24809 -31.54703,27.08389 -2.77742,1.03551 -6.71076,1.0034 -11.2622,0.97129 -9.92969,-0.0803 -22.27558,-0.1766 -33.20064,10.02601 -20.79856,19.43393 -15.15541,41.82991 -9.26343,50.96491 6.22914,9.6407 8.58112,18.83991 7.88275,30.7443 -0.45723,7.81049 -3.94137,15.33201 -7.31281,22.61271 -2.89783,6.24519 -5.63512,12.16126 -6.26124,17.85257 -1.42885,12.94792 3.64436,25.63095 14.68983,36.66037 8.33227,8.32424 23.48769,9.86547 33.5137,10.89295 l 4.81634,0.5221 c 15.60494,2.0068 24.03353,11.4388 28.56892,16.50399 l 1.74994,1.89442 c 0.98735,1.01143 2.14327,2.97008 3.48382,5.24981 3.6845,6.24519 9.23934,15.66113 19.59447,19.62659 19.72291,7.53757 28.02307,3.8932 36.05833,0.3532 l 3.42763,-1.45293 c 7.12818,-2.83362 12.97201,-11.61541 17.66794,-18.66332 1.57334,-2.35198 2.92994,-4.39892 4.10994,-5.86791 4.78423,-5.96423 18.47869,-13.68643 25.93599,-15.59691 1.11579,-0.28063 3.30722,-0.40971 6.08464,-0.56191 8.47676,-0.47328 22.69299,-1.25225 32.61465,-8.38846 14.51324,-10.41132 16.03841,-19.73093 17.37896,-27.94279 l 0.97932,-5.11335 c 1.78205,-7.44124 -4.13402,-19.06468 -8.45268,-27.54144 l -2.34395,-4.71198 c -4.87253,-10.44343 -2.34395,-29.61246 0.1766,-33.85887 2.31987,-3.94137 11.28629,-23.76061 10.97323,-27.31667 l -0.0385,-0.54585 c -1.41279,-18.31012 -7.73825,-27.26049 -12.77936,-31.539 -14.16806,-12.00874 -24.69176,-12.44221 -33.13641,-12.78738 l -5.33811,-0.3532 C 392.999,378.61891 382.74822,369.90936 378.88712,366.63425 l -0.53815,-0.44952 c -1.16394,-0.97933 -3.7166,-4.66383 -6.42981,-8.58112 -4.88858,-7.05593 -10.98125,-15.83773 -15.1795,-18.32617 l -3.62831,-2.26368 c -2.43225,-1.58136 -2.74531,-1.79007 -10.94111,-4.59157 -11.63146,-3.98954 -36.25901,2.56068 -44.63142,18.16562 m -30.9209,28.80974 c 15.97419,-5.94015 24.79612,-13.50983 32.5424,-27.93477 7.97105,-14.84235 31.3624,-21.08754 42.39985,-17.30671 7.98709,2.72926 8.23594,2.8898 10.53975,4.39892 l 3.70858,2.30382 c 3.8611,2.28776 10.06615,11.25418 14.60154,17.79637 3.01824,4.35879 5.40233,7.79445 6.7509,8.92629 l 0.5221,0.45723 c 3.97348,3.37143 14.53731,12.33785 28.39232,14.08779 l 5.49865,0.37696 c 8.15567,0.32944 18.3342,0.7385 32.01261,12.34588 4.78423,4.05376 10.77254,12.59473 12.13717,30.2707 l 0.0514,0.5619 0,0.12073 c 0,3.07443 -8.18778,21.80197 -10.73241,26.10456 -1.59742,2.70518 -3.19484,10.64411 -3.19484,18.98441 0,5.87593 0.79469,11.98466 2.93796,16.58426 l 2.36804,4.77621 c 3.49184,6.87933 8.58111,16.84113 8.58111,23.75258 0,0.89905 -0.0886,1.74993 -0.28063,2.5366 l -0.98735,5.22573 c -1.3566,8.252 -2.75334,16.77692 -16.63243,26.74674 -9.50424,6.83118 -23.3753,7.57771 -31.66743,8.05132 -2.9781,0.15283 -5.13743,0.28127 -6.42981,0.62612 -7.7222,1.96667 -21.9304,10.00996 -26.90729,16.21501 -1.24422,1.54123 -2.6249,3.60423 -4.2143,6.00437 -4.31062,6.486 -10.21866,15.34807 -16.81705,17.97297 l -3.48382,1.47702 c -7.69811,3.38749 -15.6531,6.88736 -34.66159,-0.38531 -9.75309,-3.72464 -15.11528,-12.82752 -18.66331,-18.84794 -1.46096,-2.47239 -2.60886,-4.43104 -3.75675,-5.59499 l -1.69375,-1.84626 c -4.69593,-5.24178 -13.42153,-14.99487 -29.70878,-17.09801 l -4.86451,-0.52979 c -9.76914,-0.99538 -24.52319,-2.48844 -32.38988,-10.35513 -10.64411,-10.62003 -15.54875,-22.78129 -14.16807,-35.15928 0.59402,-5.38628 3.25906,-11.18194 6.1007,-17.29066 3.44368,-7.42519 7.00777,-15.11528 7.48941,-23.27095 0.70639,-12.15323 -1.82218,-21.97856 -8.17975,-31.85206 -5.60301,-8.68546 -10.93309,-30.01382 8.96642,-48.61292 10.38724,-9.70492 22.33176,-9.60057 31.93233,-9.53635 4.73607,0.0385 8.8139,0.0642 11.90438,-1.08368 m 40.24213,-29.05293 c -3.26709,2.91388 -4.96083,7.47335 -6.94356,12.74724 -1.95864,5.24982 -4.16613,11.18997 -8.44465,17.39502 -6.93553,10.04207 -18.39841,8.61322 -25.25367,7.77036 l -3.51593,-0.32944 c -0.73048,0 -1.95062,-0.18495 -3.49185,-0.40907 -8.53294,-1.2683 -26.28918,-3.91729 -37.06173,11.26221 -5.77158,8.13159 -11.11772,20.95911 -3.89321,35.93792 2.66504,5.55485 7.05594,11.59133 13.4697,18.55896 7.32084,7.94697 4.98491,17.53951 3.74872,22.70102 l -0.49769,2.23157 c -0.24917,1.43687 -2.21552,3.4196 -4.70396,5.94818 -4.88056,4.93675 -12.2335,12.39405 -14.88249,24.31449 -4.06178,18.26195 6.5743,28.53681 12.28167,34.04349 l 0.19265,0.18495 c 5.80369,5.59498 18.55896,8.86206 27.8545,7.11213 16.22304,-3.06641 21.99462,-1.71783 25.80755,0.18494 5.41838,2.69715 12.40208,8.61323 14.32861,16.4478 5.7475,23.49571 17.4191,28.69736 27.88661,31.73166 11.03744,3.18681 18.88808,-0.44953 27.99096,-5.50669 9.82533,-5.49062 15.62902,-23.4636 17.16222,-28.83382 2.02287,-7.04791 9.27948,-12.44221 19.40985,-14.41691 3.70056,-0.72245 10.09826,0.24853 16.28726,1.18803 7.73022,1.17198 15.73337,2.39212 20.08413,0.68232 18.01311,-7.1041 22.57258,-16.61637 24.69177,-31.68349 1.74191,-12.48235 -7.96301,-23.70442 -13.17269,-29.73287 l -1.7981,-2.11116 c -3.69253,-4.57552 -9.20723,-16.8893 -5.9562,-25.96007 1.43687,-3.98954 4.8645,-7.90683 8.48478,-12.05691 3.65239,-4.18218 7.43322,-8.50886 10.10629,-13.73459 0.0803,-0.16055 8.24396,-16.51202 -4.51131,-33.45751 -10.45948,-13.89514 -24.50714,-14.32861 -34.14785,-13.45364 l -4.67987,0.57796 c -6.57431,0.89102 -14.01555,1.91048 -23.13449,-1.86232 -10.97323,-4.53538 -15.30793,-21.52903 -16.74481,-27.11599 l -0.0886,-0.38531 c -1.42884,-5.56287 -11.54316,-15.90997 -19.52223,-18.47066 -6.26124,-2.00681 -6.3977,-2.01483 -9.98587,-2.20749 l -3.35539,-0.20036 c -7.50546,-0.52979 -17.70005,5.28192 -24.00142,10.90901 m -13.87909,31.1858 c 4.41498,-6.38968 6.6626,-12.45024 8.66139,-17.78835 1.95864,-5.26586 3.52395,-9.42397 6.44586,-12.02479 6.21308,-5.54682 15.98222,-10.92506 22.6368,-10.44343 l 3.39552,0.20036 c 3.4196,0.18495 3.48382,0.18495 9.5203,2.11919 7.30478,2.35198 16.99365,12.09704 18.30209,17.17828 l 0.0963,0.3776 c 1.47702,5.81171 5.99635,23.47965 17.82046,28.36824 9.56846,3.96545 17.27461,2.90586 24.0817,1.98272 l 4.5996,-0.5619 c 9.20724,-0.84286 22.61272,-0.44118 32.5103,12.71514 10.00996,13.30915 6.53416,27.2685 4.34273,31.52294 -2.56871,5.02505 -6.28532,9.2554 -9.85744,13.35731 -3.74069,4.28655 -7.27267,8.31622 -8.83799,12.6429 -3.70055,10.33104 2.74532,23.3753 6.26927,27.74211 l 1.83824,2.1513 c 5.01702,5.81974 14.36072,16.64045 12.73119,28.27994 -2.01483,14.36875 -6.36559,23.43952 -23.54387,30.21451 -3.87716,1.54122 -11.63949,0.36925 -19.12087,-0.77865 -6.63852,-1.0034 -12.91582,-1.95864 -16.92944,-1.18 -10.8207,2.11919 -18.59909,7.99512 -20.81461,15.72535 -1.49306,5.20165 -7.07199,22.58061 -16.29528,27.72606 -9.01458,5.03308 -16.19896,8.35635 -26.57014,5.36219 -9.98588,-2.89783 -21.09557,-7.87471 -26.62633,-30.40715 -2.07103,-8.4286 -9.24738,-14.65773 -15.28385,-17.65992 -4.10995,-2.04694 -10.21867,-3.51593 -26.97151,-0.34549 -8.78982,1.65361 -20.80658,-1.38871 -26.24102,-6.63049 l -0.19265,-0.1766 c -5.4505,-5.27389 -15.60494,-15.05106 -11.7599,-32.32567 2.52858,-11.4067 9.39186,-18.35025 14.40086,-23.42346 2.80953,-2.86573 4.85647,-4.92872 5.20164,-6.93553 l 0.47393,-2.11919 c 1.32449,-5.4826 3.79688,-15.70127 -4.17416,-24.35463 -6.29335,-6.84723 -10.58792,-12.73119 -13.12453,-18.00508 -5.53879,-11.495 -4.29457,-22.95789 3.6845,-34.17996 10.11432,-14.26439 27.116,-11.73581 35.29575,-10.5237 1.61347,0.23247 2.88177,0.43347 3.74871,0.43347 l 3.2992,0.32109 c 6.79103,0.84286 19.4259,2.40817 26.98755,-8.55703 m 26.01305,-30.47619 c -6.69471,3.46776 -14.1199,14.16806 -14.59351,29.49205 -0.28063,9.45608 -4.5996,13.74262 -7.46532,16.58426 l -0.84286,0.84286 c -4.96083,5.13743 -17.2425,5.6592 -23.87299,3.7728 -2.11919,-0.60172 -4.24641,-1.76599 -6.49403,-2.98613 -4.8324,-2.63293 -10.30697,-5.63511 -18.26999,-4.84845 -11.40669,1.10776 -19.53828,7.56968 -23.50373,18.67938 -3.9494,11.04547 3.08245,21.93842 5.38627,25.51857 1.13184,1.75796 4.43906,4.10994 8.27608,6.8392 3.7728,2.68912 8.05934,5.72342 9.92968,8.12356 8.17975,10.39527 4.92873,18.91216 2.31185,25.76742 l -0.80273,2.11919 c -1.46898,4.07783 -7.40913,7.90682 -12.675,11.27023 -3.53198,2.26368 -6.87131,4.40695 -8.61322,6.46995 -5.18559,6.189 -6.99974,14.93065 -4.81634,23.38333 2.72926,10.64411 10.60398,17.3308 23.36728,19.88346 3.79688,0.77061 8.43662,-0.90708 13.80684,-2.84967 5.90001,-2.13525 12.5867,-4.53539 20.40522,-4.81634 6.21308,-0.20871 12.29772,2.44028 17.13012,7.4573 4.3347,4.47919 7.16029,10.49962 6.87131,14.61759 -0.45723,6.45389 -1.41279,19.87543 12.04888,30.11818 11.86425,9.01458 20.12427,4.93674 26.75476,1.66163 l 1.52518,-0.75456 c 7.94696,-3.82096 12.08098,-11.77595 14.24834,-27.42102 2.07905,-15.05107 9.95376,-20.38115 18.1576,-23.89708 7.5777,-3.25905 18.02113,1.64559 24.93258,4.88056 2.34395,1.10776 4.19824,1.9747 5.49866,2.31987 16.03841,4.24641 25.91993,-5.37824 28.56892,-8.42859 7.24859,-8.35635 5.76355,-20.63802 3.74069,-26.57014 -1.74994,-5.1856 -8.10751,-10.58792 -14.81827,-16.30331 l -5.28995,-4.54342 c -7.77036,-6.89539 -7.69812,-14.52929 -7.65798,-19.57039 l 0,-0.63383 c 0.0321,-5.05716 4.80831,-16.11066 8.99853,-17.5074 4.1581,-1.37265 12.07295,-5.33008 18.29406,-16.45582 7.61784,-13.61419 -3.17878,-27.84647 -9.27145,-32.2454 -6.20505,-4.46314 -17.54753,-6.91947 -26.37749,-2.68109 -9.17513,4.41498 -18.87202,8.41254 -27.75014,4.6879 -7.56968,-3.17878 -10.42738,-7.61784 -13.75868,-12.77133 l -0.24082,-0.37695 c -2.33592,-3.62029 -3.09048,-11.10167 -3.7728,-17.69203 l -0.97129,-8.08342 c -1.03552,-6.50206 -12.93187,-15.74943 -19.12087,-16.14276 l -2.48042,-0.20036 c -4.76015,-0.44118 -8.87009,-0.81075 -16.79297,3.29116 m -21.5772,48.21156 0.81075,-0.8268 c 2.88981,-2.8577 7.70615,-7.64996 8.01921,-17.84454 0.44182,-14.56943 7.36097,-24.67571 13.59813,-27.90266 7.44124,-3.8611 11.11772,-3.52396 15.77351,-3.09851 l 2.52055,0.2087 c 5.3943,0.34485 16.5361,8.99853 17.43515,14.60154 l 0.95524,7.97104 c 0.73851,7.13621 1.49307,14.52127 4.06178,18.5108 l 0.24082,0.36925 c 3.33933,5.1856 6.50206,10.07418 14.58548,13.47773 10.38724,4.35076 22.20333,-1.33252 29.26729,-4.73607 8.18778,-3.93334 18.72754,-1.63756 24.49912,2.52055 5.67525,4.10192 15.75746,17.29869 8.73363,29.86131 -5.90805,10.57186 -13.34126,14.31255 -17.26658,15.60494 -5.34614,1.77402 -10.21867,14.15201 -10.25078,19.23325 l -0.0128,0.62612 c -0.0321,5.04913 -0.11238,13.50983 8.29213,20.97516 l 5.31403,4.5675 c 6.52614,5.55484 12.675,10.78057 14.28045,15.48453 1.8864,5.5709 3.31524,17.05787 -3.40355,24.78809 -2.47239,2.84164 -11.68765,11.82412 -26.69858,7.84261 -1.13986,-0.30504 -3.01021,-1.18 -5.19362,-2.19946 -7.20042,-3.38749 -18.09338,-8.50084 -26.4417,-4.90464 -8.69349,3.71661 -17.04182,9.37581 -19.25733,25.31789 -2.07906,14.96276 -5.90002,22.50836 -13.22086,26.02429 l -1.54122,0.75456 c -6.49404,3.21892 -13.86304,6.86328 -24.82021,-1.46898 -11.1418,-8.46071 -12.03282,-18.71148 -11.33445,-28.52076 0.32879,-4.67185 -2.64096,-11.11772 -7.37703,-16.03039 -5.20164,-5.38627 -11.77595,-8.24396 -18.51882,-8.01117 -8.10751,0.28898 -15.23569,2.85769 -20.96714,4.92872 -5.11334,1.84626 -9.52832,3.42762 -12.81949,2.76939 -12.02479,-2.40014 -19.40182,-8.64533 -21.94645,-18.52685 -2.03089,-7.8988 -0.36155,-16.01433 4.45511,-21.74578 1.54926,-1.85429 4.77621,-3.92531 8.18778,-6.11675 5.50668,-3.51592 11.73582,-7.51349 13.41351,-12.18534 l 0.79469,-2.0951 c 2.62491,-6.90342 6.23716,-16.33542 -2.57674,-27.54947 -2.04694,-2.60885 -6.26124,-5.60301 -10.33105,-8.49281 -3.36341,-2.39211 -6.84723,-4.8645 -7.78641,-6.33349 -2.19144,-3.38749 -8.84601,-13.71051 -5.20165,-23.90509 3.75675,-10.53976 11.15785,-16.4157 21.95448,-17.47529 7.39308,-0.71442 12.61078,2.12722 17.19433,4.63171 2.35198,1.27633 4.57553,2.48844 6.88737,3.14668 6.91145,1.9747 20.05203,1.58136 25.69517,-4.24641 m 30.38147,-43.19454 c -11.39064,2.92192 -14.50521,12.62684 -13.61418,20.73434 0.44117,4.02968 2.29578,5.94016 3.92531,7.62588 1.4128,1.46095 2.52858,2.6249 2.70518,4.96885 0.39366,5.55485 -0.12844,10.02602 -10.63608,17.12209 -20.95911,14.2082 -29.13886,15.14739 -35.72922,14.89052 -3.52395,-0.12844 -6.53416,-3.75675 -7.69811,-6.16492 l -0.31274,-0.67429 c -1.42082,-3.1547 -4.73607,-10.5237 -13.61419,-11.81608 -15.54072,-2.27171 -19.31352,8.16369 -21.33638,13.7667 l -0.1689,0.42512 c -2.28776,6.31744 2.21552,16.29529 11.65554,20.20455 3.55607,1.46898 6.7188,1.28436 9.5203,1.11578 3.05035,-0.16825 5.45852,-0.32108 7.64193,1.56532 l 1.25225,1.04354 c 2.52857,2.0951 2.52857,2.0951 3.83701,9.06274 l 0.89103,4.70396 c 2.57674,13.22085 1.30041,20.34903 0.28063,26.08851 l -0.71443,4.49525 c -0.77864,6.7509 -5.58695,11.51105 -9.70492,12.57064 -1.61347,0.40907 -3.41157,0.0963 -5.33008,-0.23247 -3.5079,-0.60172 -7.49744,-1.30041 -11.77595,2.09511 -10.37921,8.26805 -12.17731,16.34345 -5.82777,26.20089 6.82314,10.57989 17.29868,8.04329 22.92577,6.67866 2.88178,-0.69034 4.88859,-3.80491 7.20846,-7.43322 1.38871,-2.15933 2.94599,-4.60763 4.8645,-6.76696 4.44709,-5.04913 11.47092,-2.66504 17.66794,-0.55356 l 0.75456,0.26458 c 6.55022,2.21552 26.64239,14.1761 31.0092,19.53026 3.72464,4.59158 3.45974,9.18315 -0.93919,15.8297 -4.29457,6.48601 -4.80028,14.2644 -1.28435,19.34563 5.88396,8.46873 11.63948,9.88153 16.51201,10.16248 4.4792,0.24852 8.77377,-1.75796 13.91923,-6.51811 6.6626,-6.14886 3.41157,-16.43175 3.01824,-17.57964 -0.40137,-1.19606 -1.22817,-2.57674 -2.19947,-4.17416 -1.62952,-2.68913 -3.66041,-6.03648 -3.83701,-9.14302 -0.19266,-3.78886 2.67307,-6.25322 7.02383,-9.96982 l 3.05837,-2.64899 c 6.16492,-5.4826 27.66185,-15.29991 33.36921,-16.2712 5.72341,-0.9713 9.61662,2.76137 10.49962,4.62368 2.64898,5.49866 5.34614,9.12697 9.01458,12.13718 4.06981,3.33933 8.80587,3.78885 15.82168,1.5332 8.6373,-2.76939 13.36534,-11.03744 11.77595,-20.56577 -1.36463,-8.15567 -6.65458,-11.22207 -11.94453,-13.65432 -2.40817,-1.09973 -4.44708,-0.86694 -6.62246,-0.60172 -2.8577,0.33714 -5.82777,0.69837 -10.39527,-2.00681 -5.72342,-3.38749 -6.11675,-9.27948 -6.55825,-16.11066 -0.16054,-2.40014 -0.32109,-4.88056 -0.74653,-7.33689 -1.48504,-8.65336 0.90708,-22.02673 3.98151,-29.45994 1.65361,-3.98954 4.01361,-6.38968 10.17853,-5.08927 6.71879,1.41279 10.12234,-0.1766 15.13936,-2.88177 4.27851,-2.31185 7.43322,-7.9871 7.69009,-13.79882 0.27292,-6.07661 -2.49647,-11.35051 -7.77839,-14.84235 -11.97663,-7.92288 -21.30428,-2.23157 -24.92456,2.36803 -1.19606,1.51715 -2.23157,3.41158 -3.23497,5.24179 -1.76599,3.21892 -3.58818,6.55022 -6.06859,7.25661 -3.1547,0.89905 -3.45171,0.77865 -7.13621,-0.68231 l -3.75675,-1.4449 c -11.35853,-4.19022 -24.74795,-13.48575 -31.19382,-17.9489 l -1.0596,-0.73047 c -3.35538,-2.31185 -5.19362,-4.79226 -5.60301,-7.5456 -0.52979,-3.5079 1.22817,-7.76234 5.3622,-12.99609 1.8864,-2.37606 3.41157,-7.1924 0.0449,-16.66454 -1.01143,-2.84967 -8.78982,-12.42615 -20.80659,-9.3437 m -16.58426,51.97634 c 11.29431,-7.6339 11.86425,-12.81147 11.43078,-18.7757 -0.20871,-3.01021 -1.74191,-4.59961 -3.2109,-6.12478 -1.57333,-1.61347 -3.04232,-3.14668 -3.4196,-6.5422 -0.81075,-7.34491 1.99076,-16.11868 12.23351,-18.75161 10.64411,-2.72926 17.75623,5.76355 18.62318,8.17172 3.08245,8.67744 1.8302,12.89977 0.23246,14.9146 -4.46314,5.65117 -6.33348,10.36316 -5.73947,14.40888 0.49769,3.28314 2.58477,6.15689 6.38165,8.78982 l 1.06763,0.73048 c 6.49403,4.50328 20.01991,13.88711 31.58716,18.1576 l 3.73266,1.43688 c 3.87715,1.5332 4.57552,1.80612 8.30819,0.7385 3.23497,-0.92313 5.24178,-4.5996 7.18437,-8.14764 0.96327,-1.76599 1.95864,-3.58817 3.07443,-4.98491 0.88299,-1.13987 9.09485,-10.81268 22.45217,-1.9747 4.72804,3.13062 7.1924,7.82655 6.96764,13.22888 -0.23247,5.20165 -2.99416,10.24275 -6.73485,12.25758 -4.78423,2.58477 -7.79444,3.98954 -13.88711,2.70518 -6.25322,-1.31646 -9.92166,0.5298 -12.25759,6.18097 -3.16273,7.66601 -5.63512,21.50496 -4.09389,30.4794 0.40136,2.35198 0.57026,4.78423 0.72245,7.14424 0.46558,7.03988 0.90708,13.69446 7.46533,17.57161 5.10532,3.02627 8.52492,2.60885 11.54316,2.24763 1.98273,-0.23247 3.70056,-0.44182 5.64315,0.44952 5.03307,2.31987 9.67281,5.009 10.88492,12.29772 1.4449,8.58914 -2.79347,16.02236 -10.5237,18.50278 -6.42981,2.07102 -10.50765,1.71782 -14.07977,-1.21212 -3.44368,-2.82558 -6.00437,-6.26927 -8.52492,-11.51105 -1.39674,-2.88177 -6.31743,-6.68668 -12.47432,-5.64314 -6.02042,1.01946 -27.7983,10.94112 -34.27628,16.72072 l -3.02627,2.62491 c -4.5996,3.92531 -7.91485,6.75893 -7.666,11.46289 0.18494,3.57211 2.36,7.13621 4.09388,10.00193 0.87497,1.4449 1.69375,2.80953 2.03089,3.81293 1.29239,3.76478 2.19947,11.27827 -2.52055,15.62903 -4.76015,4.39089 -8.62927,6.25321 -12.57064,6.02845 -4.42301,-0.24082 -9.67282,-1.55729 -15.0912,-9.36778 -3.05838,-4.39893 -2.52858,-11.50303 1.30041,-17.27461 3.42763,-5.20164 6.20505,-11.38261 0.81878,-17.99705 -4.62369,-5.68328 -24.95667,-17.79638 -31.82798,-20.1323 l -0.76259,-0.25687 c -6.41376,-2.18341 -14.37677,-4.89662 -19.63461,1.07564 -2.00681,2.27171 -3.62831,4.79226 -5.0411,6.99172 -2.11116,3.29117 -3.94137,6.12478 -6.03648,6.63853 -5.60301,1.34857 -14.89052,3.5962 -21.00727,-5.89199 -5.79566,-8.99853 -4.17416,-16.10263 5.42641,-23.75258 3.62831,-2.88178 7.03186,-2.30382 10.315,-1.72586 2.11116,0.36925 4.11797,0.71442 6.10872,0.20871 4.84042,-1.25225 10.19459,-6.50206 11.08561,-14.14399 l 0.69034,-4.38287 c 1.05157,-5.88396 2.36001,-13.22085 -0.28127,-26.77082 l -0.89905,-4.6879 c -1.37266,-7.33689 -1.42885,-7.62587 -4.46314,-10.1384 l -1.22817,-1.02748 c -2.75334,-2.36803 -5.77158,-2.19144 -8.96642,-2.00681 -2.72123,0.16055 -5.53076,0.32944 -8.69349,-0.97932 -9.08683,-3.75675 -12.36194,-13.09242 -10.62003,-17.86862 l 0.16054,-0.43347 c 1.9747,-5.46655 5.28995,-14.62562 19.32958,-12.57065 7.88274,1.1479 10.92506,7.87472 12.20942,10.74847 l 0.3288,0.72245 c 1.17197,2.41619 4.60763,7.03185 9.2875,7.20042 6.8954,0.26458 15.41229,-0.69034 36.83697,-15.20357 m 5.90644,12.53532 c -4.13402,6.35757 -9.23934,9.48016 -17.61977,10.7886 -8.3403,1.30041 -14.59351,3.66845 -18.0693,10.97323 -2.72926,5.7475 -0.45788,11.82411 1.74191,17.70005 l 1.90245,5.45852 c 1.22817,4.22232 -0.0578,7.47335 -1.68572,11.59132 -1.08368,2.76137 -2.31987,5.88396 -2.92994,9.7852 -1.49306,9.70492 5.04913,14.14398 8.21186,16.27923 l 0.36925,0.24852 c 2.3279,1.60545 5.49063,2.24762 9.15907,3.00218 3.58818,0.73048 7.64996,1.55729 11.63147,3.49185 3.35538,1.62953 4.78423,3.9494 6.31743,6.40573 1.01143,1.6215 2.05497,3.29919 3.6845,4.8645 5.3943,5.22573 8.84601,4.81634 14.08779,4.19825 l 1.42885,-0.1689 c 5.98029,-0.65823 10.92506,-6.69471 14.53732,-11.07758 l 2.36,-2.77742 c 2.98613,-3.13865 11.02139,-4.5113 19.51421,-5.97226 l 0.75456,-0.12844 c 8.74165,-1.50912 10.53975,-10.20261 11.21404,-13.48575 l 0.24852,-1.0917 c 0.45788,-1.30844 -0.78667,-5.69934 -3.58014,-14.39283 l -1.22014,-3.93334 -0.20036,-0.74654 c -0.69034,-2.48844 -1.62953,-5.90001 0.93918,-9.10288 3.43566,-4.28654 4.93675,-13.74262 3.04233,-19.08876 -1.84627,-5.15348 -6.9837,-9.2554 -13.13256,-10.44343 l -3.64436,-0.57025 c -3.66042,-0.51374 -7.1041,-0.97932 -11.2301,-3.72464 -3.88518,-2.57674 -4.10192,-2.9781 -4.72804,-4.01361 l -1.34055,-1.99076 c -1.98272,-2.58477 -6.1328,-7.96301 -12.57064,-9.97785 -5.81975,-1.82218 -14.00753,-0.0803 -19.19312,7.8988 m 3.98954,99.27279 c -1.46096,-1.40477 -2.44028,-2.99416 -3.40355,-4.51934 -1.58939,-2.56871 -3.23497,-5.22572 -7.08002,-7.09607 -4.17416,-2.03089 -8.36438,-2.8898 -12.06493,-3.63634 -3.45974,-0.71442 -6.45389,-1.32449 -8.48478,-2.7132 0,-0.006 -0.36926,-0.26458 -0.36926,-0.26458 -3.05837,-2.063 -8.74968,-5.91607 -7.41716,-14.46507 0.56961,-3.69253 1.75796,-6.7188 2.80953,-9.38384 1.68572,-4.27048 3.14668,-7.96301 1.73388,-12.78738 l -1.94259,-5.58695 c -2.1513,-5.77158 -4.19021,-11.22207 -1.80612,-16.2712 3.13864,-6.59839 8.71757,-8.6935 16.70467,-9.93772 8.84601,-1.38068 14.48915,-4.85647 18.86399,-11.60738 4.6558,-7.17634 11.95255,-8.75771 17.09801,-7.14423 5.90002,1.83823 9.64873,6.71879 11.67962,9.3437 l 1.21212,1.80612 c 0.81075,1.36463 1.26027,1.92654 5.28994,4.60764 4.4792,2.9781 8.13159,3.48381 11.98466,4.01361 l 3.56409,0.5542 c 4.51933,0.87497 9.89758,4.07784 11.72779,9.2554 1.70177,4.76015 0.32109,13.50983 -2.72926,17.31474 -3.1547,3.94137 -1.9747,8.20383 -1.28436,10.74847 l 0.20036,0.72245 1.2362,4.02164 c 1.26027,3.89321 3.85307,12.00071 3.60422,13.25296 0,-0.0128 -0.31274,1.30041 -0.31274,1.30041 -0.66626,3.21892 -2.21551,10.7565 -9.72098,12.04085 l -0.75456,0.13679 c -9.18315,1.57334 -17.13011,2.93796 -20.53366,6.51008 l -2.45633,2.88178 c -3.41157,4.14205 -8.0754,9.84139 -13.31718,10.41935 l -1.4449,0.16889 c -5.03308,0.60172 -7.8105,0.93116 -12.5867,-3.6845 m 2.2035,-84.93056 c -0.14449,0.0803 -14.19214,7.38505 -19.20916,12.61078 -4.53539,4.72001 -4.79226,5.99634 -6.14084,18.20576 -1.06762,9.67282 0.91511,13.9995 2.67307,17.80441 l 1.3566,3.21892 c 1.5011,4.19824 5.88397,6.69471 10.13037,9.09485 l 4.01362,2.4162 c 4.92872,3.34736 10.47554,5.34614 16.50399,5.93212 4.91267,0.48164 9.44002,-2.15932 14.68984,-5.20967 l 4.47116,-2.55266 c 9.64874,-5.22573 12.62684,-13.59011 13.46167,-16.94549 0.91511,-3.72463 1.42885,-17.31474 -1.79007,-25.65503 -3.18681,-8.27608 -13.71051,-14.16004 -14.15201,-14.40889 l 0.0257,0.006 c -0.31274,-0.17659 -7.55363,-4.43906 -10.9652,-5.17756 -3.33933,-0.72245 -11.80806,-1.02749 -15.06712,0.65823 m 9.51227,67.45284 c -5.73144,-0.56191 -10.98125,-2.44831 -15.66113,-5.61906 l -4.14205,-2.49647 c -3.9494,-2.23157 -8.02723,-4.55947 -9.29554,-8.11554 l -1.42082,-3.37143 c -1.73388,-3.76478 -3.51593,-7.66601 -2.51252,-16.82508 1.34055,-12.13718 1.61347,-12.9399 5.64314,-17.14617 3.98151,-4.14205 14.86644,-10.24275 18.73556,-12.24153 2.73729,-1.42082 10.71636,-1.17198 13.8229,-0.49769 3.12259,0.67429 10.33907,4.92069 10.41132,4.96886 l 0.0257,0.0128 c 0.10467,0.0578 10.37118,5.81172 13.3252,13.46167 2.95402,7.64995 2.64096,20.79856 1.71783,24.54728 -0.77864,3.11456 -3.53198,10.89295 -12.54656,15.78154 l -4.52736,2.56871 c -5.16954,3.01021 -9.27146,5.3943 -13.57405,4.96886 M 317.78527,452.5557 c -6.55825,4.93674 -8.66941,12.18534 -6.26927,21.51298 2.80151,10.90901 9.22329,14.40086 17.99706,16.30331 7.76233,1.67769 14.98684,-2.6811 19.14495,-7.32084 5.69131,-6.34151 4.94477,-17.08998 4.84042,-18.29406 -0.28898,-3.40355 -4.72804,-10.71636 -11.00534,-14.42494 -8.94233,-5.28994 -19.67474,-1.57334 -24.70782,2.22355 m 12.12112,36.01819 c -8.35635,-1.7981 -14.04765,-4.92872 -16.60834,-14.96276 -2.19144,-8.54098 -0.31274,-15.13134 5.58695,-19.59448 4.64777,-3.48382 14.50521,-6.93553 22.66891,-2.10313 6.1328,3.62831 9.89758,10.49159 10.11431,13.00411 0.3532,4.07784 -0.1766,12.22548 -4.36681,16.90536 -3.82899,4.25443 -10.4033,8.26002 -17.39502,6.7509 m 78.60909,-74.40204 c -4.09389,3.40354 -5.07321,8.56505 -2.54463,13.46166 2.0068,3.88519 5.20164,5.77158 9.47213,5.57893 4.15811,-0.1766 8.91826,-2.063 10.1705,-5.90001 1.09973,-3.40355 0.51375,-10.00194 -4.29457,-13.32521 -4.17416,-2.88981 -9.1992,-2.81756 -12.80343,0.18495 m -0.91511,12.61078 c -1.65361,-3.20287 -1.96667,-7.81853 2.08708,-11.18996 2.946,-2.46436 7.11213,-2.49647 10.58792,-0.0886 3.8611,2.66504 4.5675,8.24396 3.58818,11.23812 -0.84286,2.55266 -4.33471,4.45512 -8.50887,4.63171 -3.58015,0.16055 -6.04451,-1.30041 -7.75431,-4.59157 m -75.4459,-63.72544 c -2.28776,0.0642 -7.82655,0.75456 -9.8735,6.03648 -2.49647,6.47797 1.66164,12.25758 4.45512,13.89514 5.19361,3.07443 7.69008,2.60082 12.53853,-0.38531 4.81634,-2.96205 4.07784,-11.495 2.48845,-14.28847 -1.66967,-2.93797 -6.06859,-5.33811 -9.6086,-5.25784 m -4.48723,18.34223 c -2.23959,-1.3245 -5.74749,-6.26125 -3.66844,-11.64752 1.63755,-4.23838 6.2773,-4.80028 8.20383,-4.85648 3.09851,-0.0719 6.75893,2.21552 7.96302,4.31866 1.14789,2.03891 2.0068,9.45608 -1.85429,11.82411 -4.35077,2.67307 -6.15689,3.01824 -10.64412,0.36155 m 81.78871,127.36328 c -4.47117,2.75334 -4.99294,6.47798 -4.9207,9.77717 0.11239,3.96545 1.40477,6.82315 7.77037,9.65676 6.59838,2.92994 10.00996,-2.37606 11.63948,-4.92872 l 0.75456,-1.10776 c 1.52518,-1.9747 1.82219,-4.53538 0.84286,-7.23253 -1.30844,-3.57212 -4.65579,-6.60642 -8.13158,-7.36098 -3.48382,-0.75456 -4.87253,-0.69034 -7.95499,1.19606 m 3.5962,17.75624 c -6.07662,-2.7132 -6.59839,-5.0411 -6.67063,-8.02723 -0.0803,-3.35539 0.57025,-6.03648 4.0377,-8.14764 2.65701,-1.64559 3.49184,-1.65361 6.60641,-0.98735 2.84164,0.61777 5.69933,3.22694 6.78301,6.2211 0.44118,1.18803 0.94721,3.49185 -0.56191,5.45049 l -0.85088,1.2362 c -2.19946,3.45171 -4.57553,6.37362 -9.3437,4.25443 M 240.20977,414.54097 c -4.59157,7.75431 0.13679,12.32983 4.08586,15.09922 4.15008,2.89784 9.56044,1.57334 13.47773,-3.31524 1.72585,-2.16736 2.24762,-4.3026 2.24762,-6.06859 0,-0.77864 -0.11238,-1.48504 -0.24081,-2.10314 -0.73851,-3.21089 -3.09049,-6.05253 -6.2773,-7.60179 -3.91729,-1.89442 -9.75309,-1.99075 -13.2931,3.98954 m 5.14546,13.5901 c -3.8611,-2.70517 -7.30478,-6.32545 -3.56409,-12.65091 2.90586,-4.90464 7.52954,-4.90464 10.90901,-3.26709 2.65701,1.28436 4.67987,3.71661 5.28192,6.34954 0.52209,2.31185 -0.045,4.59158 -1.64559,6.61444 -3.3313,4.14205 -7.63389,5.306 -10.98125,2.95402 m -6.29817,82.34092 c -2.31987,3.52395 -2.05497,6.51811 -1.42082,8.40451 0.94722,2.90586 3.46777,5.33811 6.72682,6.51811 4.86451,1.76599 6.95159,0.54586 10.52371,-1.93456 4.5996,-3.18681 4.47116,-8.2841 3.9815,-11.03744 -0.67428,-3.83702 -5.53076,-7.66601 -9.44805,-7.44125 l -1.18803,-0.0128 c -2.4162,-0.0963 -5.42641,-0.19266 -9.17513,5.50668 m 5.94015,13.19677 c -2.69715,-0.97932 -4.85647,-3.03429 -5.62709,-5.37825 -0.71442,-2.15129 -0.28898,-4.50327 1.22014,-6.80709 3.18682,-4.84042 5.41839,-4.75212 7.57771,-4.67185 l 1.37266,0 -0.0257,0 c 3.00219,-0.15284 7.0158,2.99416 7.53757,5.9241 0.40971,2.3279 0.5298,6.59838 -3.21089,9.21526 -3.45974,2.40014 -4.85648,3.1547 -8.84601,1.71783 m 86.34169,30.6472 c -4.22233,0.59402 -5.5709,0.92314 -8.39649,4.43104 -1.0917,1.34054 -2.27171,3.66844 -2.27171,6.26124 0,1.80612 0.57796,3.7728 2.16736,5.62709 5.09729,5.9562 9.6407,5.29797 13.42153,3.85307 4.71198,-1.78205 6.62247,-7.36097 6.34954,-9.97785 -0.27293,-2.8898 -2.08708,-5.97226 -4.72804,-8.05934 -2.11919,-1.67769 -4.45511,-2.42423 -6.54219,-2.13525 m -7.10411,15.13134 c -3.78082,-4.43906 -0.27292,-9.03064 0.13615,-9.55241 2.50449,-3.09048 3.40354,-3.22695 7.22451,-3.74872 1.59741,-0.23311 3.4196,0.40136 5.14545,1.76599 2.22355,1.73389 3.81294,4.39893 4.0377,6.76696 0.20036,2.07103 -1.38871,6.6626 -5.17757,8.09948 -3.85307,1.46096 -7.26464,1.45293 -11.36656,-3.3313"
       id="path186"
       style="fill:#000000;fill-opacity:1;fill-rule:nonzero;stroke:none" />
  </g>
</svg>
